<svg width="32" height="32" viewBox="0 0 32 32" fill="none" xmlns="http://www.w3.org/2000/svg">
<g transform="translate(3.2,3.2) scale(0.8)">
<path fill-rule="evenodd" clip-rule="evenodd" d="M6 10H26C27.1 10 28 10.9 28 12V24C28 25.1 27.1 26 26 26H6C4.9 26 4 25.1 4 24V12C4 10.9 4.9 10 6 10ZM6 12V24H26V12H6Z" fill="#E2E2E2"/>
<path fill-rule="evenodd" clip-rule="evenodd" d="M11 16V18H13V16H11Z" fill="#E2E2E2"/>
<path fill-rule="evenodd" clip-rule="evenodd" d="M19 16V18H21V16H19Z" fill="#E2E2E2"/>
<path fill-rule="evenodd" clip-rule="evenodd" d="M15 10V5H10V3H15H17V10H15Z" fill="#E2E2E2"/>
<path fill-rule="evenodd" clip-rule="evenodd" d="M2 17H4V19H2V17Z" fill="#E2E2E2"/>
<path fill-rule="evenodd" clip-rule="evenodd" d="M28 17H30V19H28V17Z" fill="#E2E2E2"/>
</g>
</svg>
